<svg class="svg-icon" style="width: 1em; height: 1em;vertical-align: middle;fill: currentColor;overflow: hidden;" viewBox="0 0 1024 1024" version="1.1" xmlns="http://www.w3.org/2000/svg"><path d="M424 352h-224a24 24 0 0 0 0 48h224a24 24 0 0 0 0-48z m272 208h-496a24 24 0 0 0 0 48h496a24 24 0 0 0 0-48z m0 208h-496a24 24 0 0 0 0 48h496a24 24 0 0 0 0-48z" fill="" /><path d="M832 504V896a64 64 0 0 1-64 64H128a64 64 0 0 1-64-64V128a64 64 0 0 1 64-64h392a24 24 0 0 1 0 48H128a16 16 0 0 0-16 16v768a16 16 0 0 0 16 16h640a16 16 0 0 0 16-16V504a24 24 0 0 1 48 0z" fill="" /><path d="M768 96a160 160 0 1 1-160 160A160 160 0 0 1 768 96z m0-32a192 192 0 1 0 135.84 56.16A192 192 0 0 0 768 64z" fill="#0070FF" /><path d="M875.52 182.56a16 16 0 0 0-22.72 0l-113.12 113.12-56.48-56.64a16 16 0 0 0-16-4.16 16 16 0 0 0-11.36 11.36 16 16 0 0 0 4.16 16l67.84 67.84a14.4 14.4 0 0 0 6.4 3.68 16 16 0 0 0 10.88 0 16.96 16.96 0 0 0 5.28-3.52l124.48-124.48a16 16 0 0 0 0-22.72z" fill="#0070FF" /></svg>